<?xml version="1.0" standalone="no"?>
<!DOCTYPE svg PUBLIC "-//W3C//DTD SVG 20010904//EN"
 "http://www.w3.org/TR/2001/REC-SVG-20010904/DTD/svg10.dtd">
<svg version="1.0" xmlns="http://www.w3.org/2000/svg"
 width="723.000000pt" height="717.000000pt" viewBox="0 0 723.000000 717.000000"
 preserveAspectRatio="xMidYMid meet">

<g transform="translate(0.000000,717.000000) scale(0.100000,-0.100000)"
fill="#000000" stroke="none">
<path d="M1782 5377 c-1419 -1419 -1782 -1787 -1782 -1807 0 -20 256 -281
1248 -1273 l1247 -1247 900 900 900 900 -240 240 -240 240 -655 -655 c-360
-360 -660 -655 -665 -655 -6 0 -129 119 -275 265 l-265 265 660 660 660 660
-240 240 -240 240 -655 -655 c-360 -360 -660 -655 -665 -655 -6 0 -129 119
-275 265 l-265 265 1560 1560 1560 1560 -235 235 c-129 129 -239 235 -245 235
-5 0 -812 -802 -1793 -1783z"/>
<path d="M3875 5430 l-720 -720 780 -780 780 -780 477 477 478 478 267 -268
268 -267 -1553 -1553 c-853 -853 -1552 -1556 -1552 -1562 0 -5 100 -110 222
-232 192 -192 227 -223 253 -223 27 0 233 203 1815 1785 l1785 1785 -750 750
-750 750 -480 -480 -480 -480 -300 300 -300 300 480 480 480 480 -240 240
-240 240 -720 -720z"/>
</g>
</svg>
